<svg xmlns="http://www.w3.org/2000/svg" width="1231" height="172" viewBox="0 0 1231 172">
  <defs>
    <style>
      .cls-1 {
        fill: #fff;
        fill-rule: evenodd;
      }
    </style>
  </defs>
  <path id="ACJ320neo" class="cls-1" d="M116.353,167.5h24.525L87.741,4H53.679L0.542,167.5H25.066L37.1,130.713h67.216ZM44.368,108.459L70.483,28.072l26.341,80.387H44.368Zm229.58,4.769a50.789,50.789,0,0,1-8.4,16.8c-9.083,12.262-22.708,18.62-38.376,18.393-15.9-.227-30.656-5.9-39.74-18.393-9.764-12.717-12.262-28.386-12.489-44.281,0-15.9,2.952-32.245,12.489-44.281,9.084-12.262,24.3-18.394,39.74-18.167,15.9,0.227,29.066,5.677,38.376,18.167a51.878,51.878,0,0,1,9.084,18.848l23.843-3.406c-3.179-14.079-9.31-27.023-21.573-37.923C263.73,6.045,246.017.6,225.807,0.6c-23.162,0-43.6,8.629-57.679,26.114-13.4,16.577-17.939,37.241-18.166,59.041-0.227,20.664,5.223,41.783,18.394,58.814,13.4,17.485,33.835,26.341,57.451,26.341,19.756,0,37.7-5.223,51.321-18.166,11.126-9.992,16.8-21.346,20.21-33.608ZM398.618,4V115.044c0,15.215,0,22.254-6.131,33.381-8.856,14.76-21.8,22.481-40.421,22.481-8.629,0-17.031-1.816-24.3-6.358-10.9-6.131-18.621-17.031-21.8-28.839l23.616-5.677a21.521,21.521,0,0,0,9.311,14.079,22.677,22.677,0,0,0,12.943,4.314c7.721,0,16.35-4.087,19.756-12.035,2.725-5.45,2.5-9.538,2.5-21.346V4h24.525ZM521.242,81.663a51.793,51.793,0,0,0-31.11-16.123L530.553,26.71V4H432.227V26.483h69.486L451.528,70.763l11.127,18.848a35,35,0,0,1,15.669-4.087c7.721,0,15.214,2.271,20.891,7.721,6.586,5.9,9.538,14.761,9.538,23.617s-3.179,17.712-9.992,23.616a30.29,30.29,0,0,1-20.437,7.494,29.519,29.519,0,0,1-20.21-7.267A29.209,29.209,0,0,1,448.8,126.4l-22.935,6.359a53.6,53.6,0,0,0,16.123,24.979,55.469,55.469,0,0,0,36.56,12.943c12.944-.454,26.114-4.314,36.333-13.171,11.581-9.764,17.712-24.979,18.167-40.647C533.278,104.144,529.417,91.2,521.242,81.663Zm37.7-27.7h24.525A30.509,30.509,0,0,1,593.908,30.57a31.02,31.02,0,0,1,20.664-7.494,28,28,0,0,1,21.346,9.083,31.072,31.072,0,0,1,8.856,22.027c0,9.083-3.633,18.167-14.987,28.385l-71.3,63.809v20.892H669.072V144.792h-73.8L642.5,102.555c17.713-15.669,26.569-25.66,26.569-48.142,0-14.079-5-27.7-14.533-37.468C644.093,6.045,629.787.6,615.026,0.6c-14.079,0-27.476,3.633-37.695,12.489C564.614,23.985,558.937,38.064,558.937,53.959ZM753.32,170.679c-16.35,0-32.7-6.131-43.373-18.393-10.445-12.717-13.625-24.752-13.625-41.329V60.318c0-16.577,2.953-28.612,14.079-41.556C720.62,7.181,736.516.368,753.32,0.6c16.123-.227,32.245,5.9,43.145,18.166,10.673,12.262,13.852,24.752,13.852,41.556v50.639c0,16.123-2.952,29.066-13.625,41.329C785.792,164.321,770.351,170.679,753.32,170.679Zm0-147.6a33.024,33.024,0,0,0-27.7,15.669c-4.088,6.131-5,12.944-5,21.573v50.639c0,7.721.681,15.441,5.223,22.254,6.131,9.083,16.35,15.214,27.477,14.987a32.692,32.692,0,0,0,27.7-14.987c4.314-6.586,5-13.171,5-22.254V60.318c0-8.175-.455-14.079-4.542-21.346A33.488,33.488,0,0,0,753.32,23.076Zm182.8,29.975C924.994,43.287,911.369,40.789,898.2,41.7c-11.127.681-23.162,4.769-31.11,13.625l-3.86,4.542V44.876H842.109V167.5h23.844V113.682c0-8.856,0-18.167,1.589-24.979,1.363-7.494,4.769-14.079,9.992-18.166,5-4.087,11.127-6.131,17.939-6.585,8.63-.227,16.123,2.044,21.346,6.813,9.537,8.175,11.354,22.481,11.354,38.15V167.5h24.071V108.005C952.471,87.567,951.108,66.222,936.121,53.051Zm64.269,59.722h91.51c1.14-19.983-2.04-38.149-13.4-52-11.12-13.171-25.66-19.3-43.6-19.3-17.71,0-34.51,6.812-45.641,20.21-9.764,12.262-14.306,28.612-14.306,45.643,0,15.442,4.315,30.884,14.306,43.373,10.9,13.171,28.841,20.21,47.011,20.21a62.34,62.34,0,0,0,32.24-9.083,55.239,55.239,0,0,0,21.57-25.433l-23.16-7.494a33.941,33.941,0,0,1-11.35,13.625c-5.68,4.088-12.49,5.9-20.67,5.9-10.67,0-20.66-4.087-26.57-12.262C1003.34,129.577,1001.07,121.4,1000.39,112.773Zm34.51-50.185c10.22-.227,20.21,3.633,26.12,11.354,4.31,5.677,5.9,12.262,6.58,19.756h-66.76c1.14-7.04,3.18-13.4,7.49-19.075C1015.15,65.768,1025.14,62.361,1034.9,62.588Zm135.34,108.318c18.17,0,34.52-6.585,45.65-20.21,10.44-12.944,14.53-27.7,14.53-44.508,0-16.123-3.86-31.564-14.53-44.508-10.9-13.625-27.71-20.21-45.65-20.21-17.71,0-34.74,7.039-45.64,20.21-9.76,12.262-14.3,27.931-14.3,44.508,0,16.35,4.08,31.564,14.3,44.508C1135.73,164.094,1152.53,170.906,1170.24,170.906Zm34.98-64.718c0,10.9-2.05,21.8-8.18,29.975-5.9,8.175-16.12,12.262-26.8,12.262s-20.66-4.087-26.56-12.262c-6.14-8.175-8.18-19.075-8.18-29.975s2.04-22.027,8.18-30.2c5.9-8.175,15.89-12.035,26.56-12.035s20.9,3.86,26.8,12.035C1203.17,84.161,1205.22,95.288,1205.22,106.188Z"/>
</svg>
