<?xml version="1.0" encoding="UTF-8"?>
<svg id="B787-8" xmlns="http://www.w3.org/2000/svg" viewBox="0 0 675.9 163.5">
  <path d="m104.97,89.6c-4.25-5.46-9.76-9.62-16.56-12.48,4.33-2.47,7.95-5.86,10.89-10.14,4.36-6.36,6.54-13.79,6.54-22.29,0-7.27-1.76-14.06-5.29-20.38-3.52-6.33-8.61-11.41-15.26-15.26-6.65-3.85-14.7-5.78-24.14-5.78H0v156.96h66.71c9.59,0,17.89-1.85,24.9-5.56,7.02-3.7,12.39-8.92,16.14-15.64,3.74-6.72,5.61-14.66,5.61-23.82,0-9.88-2.8-18.42-8.39-25.61ZM19.95,21.8h40.98c7.34,0,13.3,2.14,17.88,6.43s6.86,9.78,6.86,16.46c0,4.87-1.1,9.1-3.32,12.7-2.22,3.6-5.2,6.38-8.94,8.34s-7.9,2.94-12.48,2.94H19.95V21.8Zm69.27,107.47c-2.66,3.93-6.25,6.94-10.79,9.05-4.55,2.11-9.69,3.16-15.43,3.16H19.95v-54.28h45.12c5.52,0,10.41,1.25,14.66,3.76s7.56,5.85,9.92,10.03c2.36,4.18,3.55,8.88,3.55,14.11,0,5.53-1.33,10.25-3.98,14.17Z" style="fill: #fff; stroke-width: 0px;"/>
  <path d="m143.33,160.23L199.69,22.13h-71.18V3.27h92.32v18.86l-56.24,138.1h-21.25Z" style="fill: #fff; stroke-width: 0px;"/>
  <path d="m340.89,89.98c-3.36-5.62-7.92-10.23-13.69-13.84,4.64-3.19,8.27-7.06,10.91-11.61,3.71-6.4,5.56-13.55,5.56-21.47,0-8.87-2.05-16.52-6.16-22.95-4.1-6.43-9.72-11.39-16.84-14.88s-15.29-5.23-24.52-5.23-17.42,1.74-24.58,5.23c-7.16,3.49-12.77,8.45-16.84,14.88s-6.11,14.08-6.11,22.95c0,7.92,1.95,15.11,5.84,21.58,2.71,4.52,6.27,8.33,10.68,11.43-5.83,3.69-10.39,8.35-13.68,13.96-4.43,7.56-6.65,15.99-6.65,25.29s2.18,18.01,6.54,25.24c4.36,7.23,10.41,12.86,18.15,16.89,7.74,4.03,16.62,6.05,26.65,6.05s18.91-2.02,26.65-6.05c7.74-4.03,13.82-9.66,18.26-16.89,4.43-7.23,6.65-15.65,6.65-25.24s-2.28-17.75-6.82-25.34Zm-63.98-65.02c4.91-3.99,11.32-5.99,19.24-5.99s14.33,2,19.24,5.99c4.9,4,7.35,10.03,7.35,18.1s-2.45,13.98-7.35,17.98c-4.91,4-11.32,6-19.24,6s-14.33-2-19.24-6c-4.9-4-7.36-9.99-7.36-17.98s2.46-14.1,7.36-18.1Zm41.37,112.27c-5.67,5.01-13.05,7.52-22.13,7.52s-16.44-2.51-22.07-7.52c-5.64-5.01-8.45-12.32-8.45-21.91s2.78-16.89,8.34-21.91c5.56-5.01,12.95-7.52,22.18-7.52s16.64,2.51,22.23,7.52c5.6,5.02,8.4,12.32,8.4,21.91s-2.84,16.9-8.5,21.91Z" style="fill: #fff; stroke-width: 0px;"/>
  <path d="m384.33,160.23l56.35-138.1h-71.18V3.27h92.32v18.86l-56.24,138.1h-21.25Z" style="fill: #fff; stroke-width: 0px;"/>
  <path d="m481.45,99.63v-16.24h65.4v16.24h-65.4Z" style="fill: #fff; stroke-width: 0px;"/>
  <path d="m669.09,89.98c-3.36-5.62-7.92-10.23-13.69-13.84,4.64-3.19,8.27-7.06,10.91-11.61,3.71-6.4,5.56-13.55,5.56-21.47,0-8.87-2.05-16.52-6.16-22.95-4.1-6.43-9.72-11.39-16.84-14.88s-15.3-5.23-24.52-5.23-17.43,1.74-24.58,5.23c-7.16,3.49-12.78,8.45-16.84,14.88-4.07,6.43-6.11,14.08-6.11,22.95,0,7.92,1.95,15.11,5.83,21.58,2.72,4.53,6.28,8.34,10.69,11.43-5.83,3.69-10.39,8.35-13.68,13.96-4.44,7.56-6.65,15.99-6.65,25.29s2.18,18.01,6.54,25.24c4.36,7.23,10.41,12.86,18.15,16.89,7.73,4.03,16.62,6.05,26.65,6.05s18.91-2.02,26.65-6.05c7.74-4.03,13.82-9.66,18.25-16.89,4.44-7.23,6.65-15.65,6.65-25.24s-2.27-17.75-6.81-25.34Zm-63.98-65.02c4.9-3.99,11.31-5.99,19.24-5.99s14.33,2,19.23,5.99c4.91,4,7.36,10.03,7.36,18.1s-2.45,13.98-7.36,17.98c-4.9,4-11.31,6-19.23,6s-14.34-2-19.24-6c-4.91-4-7.36-9.99-7.36-17.98s2.45-14.1,7.36-18.1Zm41.36,112.27c-5.66,5.01-13.04,7.52-22.12,7.52s-16.45-2.51-22.08-7.52c-5.63-5.01-8.44-12.32-8.44-21.91s2.78-16.89,8.33-21.91c5.56-5.01,12.96-7.52,22.19-7.52s16.64,2.51,22.23,7.52c5.6,5.02,8.4,12.32,8.4,21.91s-2.84,16.9-8.51,21.91Z" style="fill: #fff; stroke-width: 0px;"/>
</svg>