<?xml version="1.0" encoding="UTF-8"?>
<svg id="B787-8" xmlns="http://www.w3.org/2000/svg" viewBox="0 0 704.24 243.07">
  <path d="m15.26,187.48V30.52h61.15c9.45,0,17.49,1.93,24.14,5.78,6.65,3.85,11.73,8.94,15.26,15.26,3.52,6.32,5.29,13.12,5.29,20.38,0,8.5-2.18,15.93-6.54,22.29-4.36,6.36-10.25,10.74-17.66,13.13l-.11-5.34c10.03,2.69,17.84,7.63,23.44,14.82,5.59,7.19,8.39,15.73,8.39,25.62,0,9.16-1.87,17.1-5.61,23.82-3.74,6.72-9.12,11.94-16.13,15.64-7.01,3.71-15.31,5.56-24.91,5.56H15.26Zm19.95-91.56h40.98c4.58,0,8.74-.98,12.48-2.94,3.74-1.96,6.72-4.74,8.94-8.34,2.22-3.6,3.32-7.83,3.32-12.7,0-6.68-2.29-12.17-6.87-16.46-4.58-4.29-10.54-6.43-17.88-6.43h-40.98v46.87Zm0,72.81h43.06c5.74,0,10.88-1.05,15.42-3.16,4.54-2.11,8.14-5.12,10.79-9.05,2.65-3.92,3.98-8.65,3.98-14.17,0-5.23-1.18-9.94-3.54-14.12-2.36-4.18-5.67-7.52-9.92-10.03s-9.14-3.76-14.66-3.76h-45.13v54.28Z" style="fill: #fff; stroke-width: 0px;"/>
  <path d="m158.59,187.48l56.35-138.1h-71.18v-18.86h92.32v18.86l-56.24,138.1h-21.25Z" style="fill: #fff; stroke-width: 0px;"/>
  <path d="m311.41,190.75c-10.03,0-18.91-2.02-26.65-6.05-7.74-4.03-13.79-9.66-18.15-16.9-4.36-7.23-6.54-15.64-6.54-25.23s2.22-17.73,6.65-25.29c4.43-7.56,11.15-13.37,20.17-17.44l-.33,7.09c-7.34-3.56-12.95-8.57-16.84-15.04-3.89-6.47-5.83-13.66-5.83-21.58,0-8.86,2.03-16.51,6.1-22.94,4.07-6.43,9.68-11.39,16.84-14.88,7.16-3.49,15.35-5.23,24.58-5.23s17.4,1.74,24.52,5.23c7.12,3.49,12.73,8.45,16.84,14.88,4.1,6.43,6.16,14.08,6.16,22.94,0,7.92-1.85,15.08-5.56,21.47-3.71,6.4-9.37,11.45-17,15.15l-.44-6.98c8.94,3.92,15.68,9.68,20.22,17.28,4.54,7.59,6.81,16.04,6.81,25.34s-2.22,18-6.65,25.23c-4.43,7.23-10.52,12.86-18.26,16.9-7.74,4.03-16.62,6.05-26.65,6.05Zm0-18.75c9.08,0,16.46-2.51,22.13-7.52s8.5-12.32,8.5-21.91-2.8-16.89-8.39-21.91c-5.6-5.01-13.01-7.52-22.24-7.52s-16.62,2.51-22.18,7.52c-5.56,5.01-8.34,12.32-8.34,21.91s2.82,16.9,8.45,21.91c5.63,5.01,12.99,7.52,22.07,7.52Zm0-77.72c7.92,0,14.33-2,19.24-6,4.9-4,7.36-9.99,7.36-17.98s-2.45-14.1-7.36-18.09c-4.91-4-11.32-6-19.24-6s-14.33,2-19.24,6c-4.91,4-7.36,10.03-7.36,18.09s2.45,13.99,7.36,17.98c4.9,4,11.32,6,19.24,6Z" style="fill: #fff; stroke-width: 0px;"/>
  <path d="m399.59,187.48l56.35-138.1h-71.18v-18.86h92.32v18.86l-56.24,138.1h-21.25Z" style="fill: #fff; stroke-width: 0px;"/>
  <path d="m496.71,126.88v-16.24h65.4v16.24h-65.4Z" style="fill: #fff; stroke-width: 0px;"/>
  <path d="m639.61,190.75c-10.03,0-18.91-2.02-26.65-6.05-7.74-4.03-13.79-9.66-18.15-16.9-4.36-7.23-6.54-15.64-6.54-25.23s2.22-17.73,6.65-25.29c4.43-7.56,11.15-13.37,20.17-17.44l-.33,7.09c-7.34-3.56-12.95-8.57-16.84-15.04-3.89-6.47-5.83-13.66-5.83-21.58,0-8.86,2.03-16.51,6.1-22.94,4.07-6.43,9.68-11.39,16.84-14.88,7.16-3.49,15.35-5.23,24.58-5.23s17.4,1.74,24.52,5.23c7.12,3.49,12.73,8.45,16.84,14.88,4.1,6.43,6.16,14.08,6.16,22.94,0,7.92-1.85,15.08-5.56,21.47-3.71,6.4-9.37,11.45-17,15.15l-.44-6.98c8.94,3.92,15.68,9.68,20.22,17.28,4.54,7.59,6.81,16.04,6.81,25.34s-2.22,18-6.65,25.23c-4.43,7.23-10.52,12.86-18.26,16.9s-16.62,6.05-26.65,6.05Zm0-18.75c9.08,0,16.46-2.51,22.13-7.52s8.5-12.32,8.5-21.91-2.8-16.89-8.39-21.91c-5.6-5.01-13.01-7.52-22.24-7.52s-16.62,2.51-22.18,7.52c-5.56,5.01-8.34,12.32-8.34,21.91s2.82,16.9,8.45,21.91c5.63,5.01,12.99,7.52,22.07,7.52Zm0-77.72c7.92,0,14.33-2,19.24-6,4.91-4,7.36-9.99,7.36-17.98s-2.45-14.1-7.36-18.09c-4.91-4-11.32-6-19.24-6s-14.33,2-19.24,6c-4.9,4-7.36,10.03-7.36,18.09s2.45,13.99,7.36,17.98c4.91,4,11.32,6,19.24,6Z" style="fill: #fff; stroke-width: 0px;"/>
</svg>