<?xml version="1.0" encoding="UTF-8"?>
<svg id="Unmirrored_PFD" data-name="Unmirrored PFD" xmlns="http://www.w3.org/2000/svg" viewBox="0 0 411.43 41.72">
  <path d="m16.07,41.72c-3.15,0-5.94-.65-8.36-1.95-2.42-1.3-4.31-3.12-5.67-5.46-1.36-2.34-2.04-5.1-2.04-8.27V.59l5.94-.03v25.17c0,1.72.29,3.23.87,4.54.58,1.31,1.35,2.4,2.32,3.28.97.88,2.06,1.54,3.26,1.99,1.2.45,2.43.67,3.68.67s2.51-.23,3.71-.69c1.2-.46,2.29-1.12,3.26-2,.97-.88,1.74-1.97,2.31-3.28s.85-2.81.85-4.51V.56h5.94v25.48c0,3.15-.68,5.91-2.04,8.26-1.36,2.35-3.25,4.18-5.67,5.47-2.42,1.3-5.2,1.95-8.36,1.95Z" style="fill: #171f2c; stroke-width: 0px;"/>
  <path d="m67.14,24.08v16.8h-5.93v-14.87c0-1.17-.1-2.38-.3-3.62-.19-1.24-.57-2.4-1.12-3.46s-1.32-1.92-2.32-2.58c-1-.65-2.3-.98-3.91-.98-1.04,0-2.03.18-2.96.52-.94.35-1.75.9-2.45,1.67-.71.76-1.26,1.77-1.66,3.02-.4,1.25-.6,2.77-.6,4.57v15.73h-5.93V10.64h5.23v3.63c.84-1.07,1.85-1.96,3.02-2.68,1.93-1.17,4.25-1.76,6.98-1.76,2.09,0,3.84.34,5.26,1.01,1.42.67,2.57,1.55,3.46,2.64.89,1.1,1.56,2.29,2.03,3.57.47,1.29.78,2.55.95,3.78.17,1.23.25,2.32.25,3.25Z" style="fill: #171f2c; stroke-width: 0px;"/>
  <path d="m116.54,20.64l-.03,20.24h-5.86l.03-18.84c0-2.19-.56-3.89-1.68-5.11-1.12-1.22-2.59-1.84-4.42-1.84-1.12,0-2.14.26-3.07.77-.92.52-1.67,1.28-2.24,2.3-.57,1.02-.85,2.29-.85,3.82l-.03,18.9h-5.85l.03-18.73c0-2.2-.56-3.93-1.67-5.18s-2.6-1.88-4.46-1.88-3.34.64-4.47,1.91-1.7,2.93-1.7,4.98v18.9h-5.87V10.64h5.2v3.27c.85-1.09,1.91-1.98,3.17-2.68,1.62-.9,3.46-1.34,5.51-1.34s3.98.45,5.49,1.35c1.42.86,2.53,2.02,3.31,3.51.92-1.51,2.16-2.69,3.72-3.53,1.62-.89,3.44-1.33,5.46-1.33,3.27,0,5.79.98,7.59,2.94,1.79,1.96,2.69,4.56,2.69,7.81Z" style="fill: #171f2c; stroke-width: 0px;"/>
  <path d="m124.38,5.68V0h5.85v5.68h-5.85Zm0,35.2V10.64h5.85v30.24h-5.85Z" style="fill: #171f2c; stroke-width: 0px;"/>
  <path d="m154.95,10.64v5.49c-.99-.26-2.08-.34-3.29-.22-1.2.11-2.31.49-3.32,1.14-.95.62-1.7,1.37-2.25,2.24-.55.88-.95,1.86-1.19,2.93-.24,1.07-.36,2.21-.36,3.4v15.26h-5.91V10.64h5.2v4.85c.22-.4.47-.78.73-1.14.6-.81,1.29-1.48,2.08-2,.76-.56,1.61-.99,2.56-1.3.94-.31,1.91-.5,2.9-.56.98-.07,1.94-.02,2.85.15Z" style="fill: #171f2c; stroke-width: 0px;"/>
  <path d="m176.6,10.64v5.49c-.99-.26-2.09-.34-3.29-.22-1.21.11-2.31.49-3.32,1.14-.95.62-1.71,1.37-2.26,2.24-.55.88-.94,1.86-1.19,2.93-.24,1.07-.36,2.21-.36,3.4v15.26h-5.91V10.64h5.21v4.84c.22-.39.46-.77.73-1.13.59-.81,1.29-1.48,2.07-2,.76-.56,1.62-.99,2.56-1.3s1.91-.5,2.9-.56c.99-.07,1.94-.02,2.86.15Z" style="fill: #171f2c; stroke-width: 0px;"/>
  <path d="m194.49,41.72c-3.02,0-5.65-.68-7.87-2.04-2.22-1.36-3.93-3.24-5.14-5.64s-1.81-5.17-1.81-8.3.62-5.93,1.85-8.33c1.23-2.4,2.96-4.27,5.18-5.6,2.22-1.33,4.82-2,7.78-2s5.65.68,7.87,2.04c2.22,1.36,3.94,3.24,5.15,5.63,1.21,2.39,1.82,5.14,1.82,8.26s-.61,5.93-1.83,8.33c-1.22,2.4-2.94,4.28-5.17,5.63-2.22,1.35-4.83,2.03-7.84,2.03Zm0-5.52c2.89,0,5.05-.98,6.48-2.93,1.43-1.95,2.14-4.47,2.14-7.55s-.72-5.68-2.17-7.57c-1.45-1.89-3.6-2.84-6.45-2.84-1.96,0-3.57.44-4.84,1.33-1.27.89-2.21,2.11-2.83,3.67-.62,1.56-.92,3.36-.92,5.42,0,3.17.73,5.71,2.18,7.62,1.46,1.9,3.59,2.86,6.41,2.86Z" style="fill: #171f2c; stroke-width: 0px;"/>
  <path d="m231.81,10.64v5.49c-.99-.26-2.08-.34-3.29-.22-1.2.11-2.31.49-3.32,1.14-.95.62-1.7,1.37-2.25,2.24-.55.88-.95,1.86-1.19,2.93-.24,1.07-.36,2.21-.36,3.4v15.26h-5.91V10.64h5.21v4.84c.22-.39.46-.77.72-1.13.6-.81,1.29-1.48,2.08-2,.76-.56,1.61-.99,2.56-1.3.94-.31,1.91-.5,2.9-.56.98-.07,1.94-.02,2.85.15Z" style="fill: #171f2c; stroke-width: 0px;"/>
  <path d="m263.7,27.41c.23-3.62-.2-6.74-1.27-9.38-1.07-2.63-2.69-4.66-4.86-6.09-2.16-1.42-4.79-2.14-7.87-2.14s-5.53.66-7.75,1.99c-2.22,1.32-3.96,3.2-5.2,5.63-1.24,2.42-1.86,5.29-1.86,8.59,0,3.12.63,5.86,1.89,8.22,1.26,2.36,3.03,4.2,5.29,5.52,2.27,1.31,4.91,1.97,7.91,1.97s5.59-.74,7.98-2.22c2.39-1.49,4.18-3.58,5.35-6.29l-5.74-1.82c-.75,1.55-1.79,2.74-3.12,3.57-1.34.83-2.92,1.25-4.75,1.25-2.78,0-4.91-.91-6.38-2.73-1.23-1.51-1.94-3.53-2.14-6.07h22.52Zm-22.38-4.56c.29-2.1.96-3.8,2-5.1,1.47-1.84,3.68-2.77,6.61-2.77,2.65,0,4.62.84,5.92,2.52.98,1.26,1.59,3.05,1.85,5.35h-16.38Z" style="fill: #171f2c; stroke-width: 0px;"/>
  <path d="m290.33.56v12.16c-.32-.31-.66-.58-1.02-.83-1.95-1.39-4.35-2.09-7.21-2.09s-5.29.7-7.35,2.09c-2.06,1.39-3.66,3.28-4.78,5.68s-1.68,5.12-1.68,8.16.56,5.75,1.67,8.17c1.11,2.41,2.69,4.32,4.73,5.72,2.05,1.4,4.48,2.1,7.3,2.1s5.32-.7,7.28-2.11c.63-.45,1.21-.96,1.73-1.52v2.79h5.21V.56h-5.88Zm-.17,30.72c-.56,1.6-1.44,2.86-2.66,3.78-1.21.91-2.78,1.37-4.7,1.37s-3.41-.48-4.63-1.43c-1.23-.95-2.14-2.23-2.75-3.85-.61-1.61-.91-3.42-.91-5.42s.3-3.77.91-5.37c.61-1.61,1.54-2.89,2.79-3.84s2.84-1.43,4.79-1.43c1.82,0,3.33.45,4.52,1.35,1.18.89,2.06,2.14,2.63,3.75.57,1.61.85,3.45.85,5.54s-.28,3.94-.84,5.55Z" style="fill: #171f2c; stroke-width: 0px;"/>
  <path d="m315.25,40.88V.56h16.3c.39,0,.88.01,1.46.04.58.03,1.13.09,1.65.18,2.24.35,4.11,1.12,5.61,2.3,1.5,1.18,2.63,2.66,3.37,4.45.75,1.79,1.12,3.77,1.12,5.94s-.37,4.17-1.12,5.96c-.75,1.79-1.87,3.28-3.37,4.45-1.5,1.18-3.37,1.94-5.61,2.3-.52.08-1.08.13-1.67.17-.59.04-1.07.06-1.44.06h-10.44v14.48h-5.85Zm5.85-20.02h10.22c.37,0,.79-.02,1.25-.06.46-.04.89-.1,1.3-.2,1.19-.28,2.16-.8,2.88-1.55.73-.76,1.25-1.63,1.57-2.62s.48-1.98.48-2.97-.16-1.97-.48-2.95-.84-1.85-1.57-2.6c-.73-.76-1.69-1.27-2.88-1.55-.41-.11-.84-.19-1.3-.22-.46-.04-.87-.06-1.25-.06h-10.22v14.78Z" style="fill: #171f2c; stroke-width: 0px;"/>
  <path d="m350.36,40.88V.56h23.88v5.85h-18.03v11.37h14.67v5.88h-14.67v17.22h-5.85Z" style="fill: #171f2c; stroke-width: 0px;"/>
  <path d="m379.29,40.88V.56h12.63c.37,0,1.07,0,2.09.03,1.02.02,1.99.09,2.93.22,3.16.39,5.81,1.52,7.97,3.39,2.16,1.87,3.78,4.23,4.89,7.1,1.1,2.87,1.65,6.01,1.65,9.42s-.55,6.58-1.65,9.45-2.73,5.23-4.89,7.08c-2.16,1.86-4.81,2.98-7.97,3.37-.93.13-1.91.21-2.93.22-1.02.02-1.71.03-2.09.03h-12.63Zm5.99-5.57h6.64c.63,0,1.39-.02,2.27-.06.88-.04,1.65-.11,2.32-.22,2.05-.39,3.72-1.28,5-2.67,1.28-1.39,2.22-3.1,2.81-5.14.6-2.03.9-4.2.9-6.5s-.31-4.57-.92-6.59-1.56-3.72-2.84-5.1c-1.28-1.37-2.93-2.24-4.94-2.62-.67-.13-1.45-.21-2.34-.24s-1.64-.04-2.25-.04h-6.64v29.18Z" style="fill: #171f2c; stroke-width: 0px;"/>
</svg>